0
SECTION
2
HEADER
9
$INSUNITS
70
4
9
$ACADVER
1
AC1014
9
$HANDSEED
5
FFFF
0
ENDSEC
0
SECTION
2
TABLES
0
TABLE
2
VPORT
5
8
100
AcDbSymbolTable
0
ENDTAB
0
TABLE
2
LTYPE
5
5
100
AcDbSymbolTable
0
LTYPE
5
14
100
AcDbSymbolTableRecord
100
AcDbLinetypeTableRecord
2
BYBLOCK
70
0
0
LTYPE
5
15
100
AcDbSymbolTableRecord
100
AcDbLinetypeTableRecord
2
BYLAYER
70
0
0
ENDTAB
0
TABLE
2
LAYER
5
2
100
AcDbSymbolTable
70
2
0
LAYER
5
50
100
AcDbSymbolTableRecord
100
AcDbLayerTableRecord
2
0
70
0
6
CONTINUOUS
0
ENDTAB
0
TABLE
2
STYLE
5
3
100
AcDbSymbolTable
70
1
0
STYLE
5
11
100
AcDbSymbolTableRecord
100
AcDbTextStyleTableRecord
2
STANDARD
70
0
0
ENDTAB
0
TABLE
2
VIEW
5
6
100
AcDbSymbolTable
70
0
0
ENDTAB
0
TABLE
2
UCS
5
7
100
AcDbSymbolTable
70
0
0
ENDTAB
0
TABLE
2
APPID
5
9
100
AcDbSymbolTable
70
2
0
APPID
5
12
100
AcDbSymbolTableRecord
100
AcDbRegAppTableRecord
2
ACAD
70
0
0
ENDTAB
0
TABLE
2
DIMSTYLE
5
A
100
AcDbSymbolTable
70
1
0
ENDTAB
0
TABLE
2
BLOCK_RECORD
5
1
100
AcDbSymbolTable
70
1
0
BLOCK_RECORD
5
1F
100
AcDbSymbolTableRecord
100
AcDbBlockTableRecord
2
*MODEL_SPACE
0
BLOCK_RECORD
5
1B
100
AcDbSymbolTableRecord
100
AcDbBlockTableRecord
2
*PAPER_SPACE
0
ENDTAB
0
ENDSEC
0
SECTION
2
BLOCKS
0
BLOCK
5
20
100
AcDbEntity
100
AcDbBlockBegin
2
*MODEL_SPACE
0
ENDBLK
5
21
100
AcDbEntity
100
AcDbBlockEnd
0
BLOCK
5
1C
100
AcDbEntity
100
AcDbBlockBegin
2
*PAPER_SPACE
0
ENDBLK
5
1D
100
AcDbEntity
100
AcDbBlockEnd
0
ENDSEC
0
SECTION
2
ENTITIES
0
CIRCLE
5
100
100
AcDbEntity
8
0
100
AcDbCircle
10
-24.174999991551175
20
-38.413224838324822
30
0
40
0.80000000000000071
210
0
220
0
230
1
0
CIRCLE
5
101
100
AcDbEntity
8
0
100
AcDbCircle
10
23.175000000000125
20
-5.5867783254799983
30
0
40
0.80000000000000071
210
0
220
0
230
1
0
CIRCLE
5
102
100
AcDbEntity
8
0
100
AcDbCircle
10
23.174999999999116
20
-38.41322167452126
30
0
40
0.80000000000000071
210
0
220
0
230
1
0
CIRCLE
5
103
100
AcDbEntity
8
0
100
AcDbCircle
10
-24.17499999155104
20
-5.5867751616759387
30
0
40
0.80000000000000071
210
0
220
0
230
1
0
LWPOLYLINE
5
104
100
AcDbEntity
8
0
100
AcDbPolyline
90
19
70
1
43
0.0
10
23.799999999999997
20
-40.799999999999997
42
0.41421356237309637
10
24.799999999999997
20
-39.799999999999997
10
24.800000000000004
20
-4.2000000000000037
42
0.4142135623730957
10
23.800000000000008
20
-3.2000000000000051
10
14.000000163912771
20
-3.2000000000000028
42
-0.41421356237309515
10
13.00000016391277
20
-2.2000000000000015
10
13.000000163912773
20
0.83161085248729893
42
0.41421356237309614
10
12.000000163912771
20
1.8316108524872994
10
-21.468397061433873
20
1.8316108524872987
42
0.41421356237309426
10
-22.468397061433873
20
0.83161085248729871
10
-22.468397061433876
20
-2.2000000000000042
42
-0.41421356237309503
10
-23.46839706143388
20
-3.2000000000000037
10
-24.800000000000004
20
-3.2000000000000037
42
0.41421352323235727
10
-25.79999999999999
20
-4.1999998663651636
10
-25.800000116926441
20
-6.5249691319505123
10
-25.800000000000001
20
-37.159797974644675
10
-25.80000011692659
20
-37.475030868049075
10
-25.7999998062297
20
-39.800000133634853
42
0.41421352323235333
10
-24.799999762536189
20
-40.799999999999997
0
LWPOLYLINE
5
105
100
AcDbEntity
8
0
100
AcDbPolyline
90
8
70
1
43
0.0
10
22.850000000000001
20
-36.352081528017116
10
20.352081528017109
20
-38.850000000000009
10
-21.352081528017123
20
-38.849999999999994
10
-23.850000000000001
20
-36.352081528017131
10
-23.850000000000001
20
-7.647918471982873
10
-21.352081528017138
20
-5.1499999999999968
10
20.352081528017134
20
-5.1500000000000021
10
22.850000000000001
20
-7.6479184719828686
0
ENDSEC
0
SECTION
2
OBJECTS
0
DICTIONARY
5
C
100
AcDbDictionary
3
ACAD_GROUP
350
D
3
ACAD_MLINESTYLE
350
17
0
DICTIONARY
5
D
100
AcDbDictionary
0
DICTIONARY
5
1A
330
C
100
AcDbDictionary
0
DICTIONARY
5
17
100
AcDbDictionary
0
ENDSEC
0
EOF
